HIERARCHY
ROOT Hips
{
	OFFSET -3.958830 18.904000 13.208200
	CHANNELS 6 Xposition Yposition Zposition Zrotation Yrotation Xrotation 
	JOINT LHipJoint
	{
		OFFSET 0.000000 0.000000 0.000000
		CHANNELS 3 Zrotation Yrotation Xrotation
		JOINT LeftUpLeg
		{
			OFFSET 1.800000 -1.400000 0.085000
			CHANNELS 3 Zrotation Yrotation Xrotation
			JOINT LeftLeg
			{
				OFFSET 2.215000 -6.000000 0.000000
				CHANNELS 3 Zrotation Yrotation Xrotation
				JOINT LeftFoot
				{
					OFFSET 2.500000 -6.900000 0.000000
					CHANNELS 3 Zrotation Yrotation Xrotation
					JOINT LeftToeBase
					{
						OFFSET 0.200000 -0.500000 1.950000
						CHANNELS 3 Zrotation Yrotation Xrotation
						End Site
						{
							OFFSET 0.000000 0.000000 0.000000
						}
					}
				}
			}
		}
	}
	JOINT RHipJoint
	{
		OFFSET 0.000000 0.000000 0.000000
		CHANNELS 3 Zrotation Yrotation Xrotation
		JOINT RightUpLeg
		{
			OFFSET -1.800000 -1.400000 0.085000
			CHANNELS 3 Zrotation Yrotation Xrotation
			JOINT RightLeg
			{
				OFFSET -2.215000 -6.000000 0.000000
				CHANNELS 3 Zrotation Yrotation Xrotation
				JOINT RightFoot
				{
					OFFSET -2.500000 -6.900000 0.000000
					CHANNELS 3 Zrotation Yrotation Xrotation
					JOINT RightToeBase
					{
						OFFSET -0.200000 -0.500000 1.950000
						CHANNELS 3 Zrotation Yrotation Xrotation
						End Site
						{
							OFFSET 0.000000 0.000000 0.000000
						}
					}
				}
			}
		}
	}
	JOINT LowerBack
	{
		OFFSET 0.000000 0.000000 0.000000
		CHANNELS 3 Zrotation Yrotation Xrotation
		JOINT Spine
		{
			OFFSET -0.087000 1.940000 -0.288900
			CHANNELS 3 Zrotation Yrotation Xrotation
			JOINT Spine1
			{
				OFFSET 0.000000 1.950000 0.060000
				CHANNELS 3 Zrotation Yrotation Xrotation
				JOINT Neck
				{
					OFFSET 0.000000 0.000000 0.000000
					CHANNELS 3 Zrotation Yrotation Xrotation
					JOINT Neck1
					{
						OFFSET 0.000000 1.600000 0.340000
						CHANNELS 3 Zrotation Yrotation Xrotation
						JOINT Head
						{
							OFFSET 0.000000 1.667000 -0.240000
							CHANNELS 3 Zrotation Yrotation Xrotation
							End Site
							{
								OFFSET 0.000000 0.000000 0.000000
							}
						}
					}
				}
				JOINT LeftShoulder
				{
					OFFSET 0.000000 0.000000 0.000000
					CHANNELS 3 Zrotation Yrotation Xrotation
					JOINT LeftArm
					{
						OFFSET 2.700000 1.550000 -0.730000
						CHANNELS 3 Zrotation Yrotation Xrotation
						JOINT LeftForeArm
						{
							OFFSET 5.450000 0.000000 0.000000
							CHANNELS 3 Zrotation Yrotation Xrotation
							JOINT LeftHand
							{
								OFFSET 3.450000 0.000000 0.000000
								CHANNELS 3 Zrotation Yrotation Xrotation
								JOINT LeftHandIndex1
								{
									OFFSET 0.750000 0.000000 0.000000
									CHANNELS 3 Zrotation Yrotation Xrotation
									End Site
									{
										OFFSET 0.000000 0.000000 0.000000
									}
								}
							}
						}
					}
				}
				JOINT RightShoulder
				{
					OFFSET 0.000000 0.000000 0.000000
					CHANNELS 3 Zrotation Yrotation Xrotation
					JOINT RightArm
					{
						OFFSET -2.700000 1.550000 -0.730000
						CHANNELS 3 Zrotation Yrotation Xrotation
						JOINT RightForeArm
						{
							OFFSET -5.450000 0.000000 0.000000
							CHANNELS 3 Zrotation Yrotation Xrotation
							JOINT RightHand
							{
								OFFSET -3.450000 0.000000 0.000000
								CHANNELS 3 Zrotation Yrotation Xrotation
								JOINT RightHandIndex1
								{
									OFFSET -0.750000 0.000000 0.000000
									CHANNELS 3 Zrotation Yrotation Xrotation
									End Site
									{
										OFFSET 0.000000 0.000000 0.000000
									}
								}
							}
						}
					}
				}
			}
		}
	}
}
MOTION
Frames: 13
Frame Time: 0.016667
7.979700 16.652240 -0.624590 -4.482219 -15.561237 -3.809480 -14.962708 14.449474 2.461223 7.148589 -1.859442 -17.677505 22.710642 -0.954359 18.543657 -0.135211 3.684006 3.207039 0.163820 0.224300 -0.043650 18.176698 -11.223570 2.968066 -10.578919 0.632779 -8.176514 7.346905 -4.337035 7.836232 -0.101576 -3.453803 3.267888 0.216540 0.276300 -0.071010 -3.444804 -2.595839 -7.479207 12.299758 3.793031 15.707668 -11.595741 4.592898 -13.624652 8.929845 -12.825544 -7.825753 -32.903948 26.978584 32.256998 7.202110 16.956740 5.556770 -23.552022 9.173347 -2.645325 -56.571316 4.869298 -4.935293 -4.789951 -7.296935 -0.609783 -3.938430 2.821250 0.122860 0.122740 -0.087090 0.151840 5.456531 3.446181 -0.007161 -35.988342 -18.982650 0.686421 -124.044745 -9.068499 23.713937 3.087029 -1.582619 -0.182710 0.231430 0.016150 -0.027980 
7.984820 16.668970 -0.621480 -4.321833 -16.918786 -3.803460 -14.940197 14.507679 2.428880 7.423103 -1.560088 -16.804635 22.204264 -0.683212 18.085270 -0.126280 3.650146 3.224548 0.144540 0.204390 -0.053780 18.175976 -11.257277 3.012586 -10.504216 0.690561 -8.445929 7.120395 -4.218193 7.497020 -0.093971 -3.399964 3.289750 0.198500 0.287730 -0.069130 -3.438045 -2.566366 -7.509741 12.275381 3.691354 15.448948 -12.300001 4.336101 -14.559851 9.306878 -12.642643 -8.050715 -32.038682 27.820124 33.417662 8.274570 18.069740 6.833960 -24.856423 8.216833 -2.184748 -54.971314 6.234649 -4.828827 -4.936612 -5.928054 -0.545360 -3.933672 2.829281 0.125580 0.129830 -0.086980 0.150070 6.143118 4.518456 -0.054685 -36.489016 -17.096790 0.474758 -132.539185 -8.311122 27.588613 3.094346 -1.512723 -0.187210 0.223310 0.021850 -0.028970 
7.993290 16.673280 -0.614390 -4.022054 -19.041042 -4.073290 -14.936165 14.608214 2.365381 7.910650 -1.123686 -15.691924 21.550148 -0.370528 18.515640 -0.117719 3.705469 3.200282 0.128600 0.187650 -0.047060 18.148854 -11.317508 3.035077 -10.832373 0.753859 -8.905049 7.083252 -4.223604 7.722321 -0.086746 -3.358081 3.295275 0.183280 0.276070 -0.069160 -3.345501 -2.544629 -7.508634 11.779499 4.254690 15.529901 -12.176206 4.843498 -15.502110 9.584514 -12.535763 -8.010057 -31.555534 28.386878 34.614181 8.253780 19.092340 7.135550 -25.008013 8.969047 -2.266190 -54.481581 7.285734 -5.294540 -4.733820 -6.977557 -0.588264 -3.928642 2.808686 0.141170 0.125940 -0.073780 0.134600 5.803684 4.166449 -0.268029 -35.415328 -15.521963 0.103475 -138.413931 -7.406299 30.022701 3.103665 -1.465735 -0.191690 0.218160 0.029400 -0.040800 
7.997550 16.671860 -0.601410 -3.966703 -21.030142 -3.815907 -14.960623 14.711157 2.310197 8.431044 -0.745031 -15.121808 21.260920 -0.143514 19.045776 -0.078665 3.767730 3.169863 0.135580 0.200940 -0.048090 18.112326 -11.301989 3.049599 -10.739170 0.885170 -9.628260 7.126528 -4.147680 7.780269 -0.076692 -3.266378 3.324248 0.176730 0.264640 -0.069960 -3.203876 -2.655870 -7.484292 11.386720 4.836745 15.381742 -10.825388 5.400145 -16.599002 9.425613 -12.857898 -8.227758 -33.006156 29.166111 33.756046 8.776360 19.685430 7.409800 -23.620164 10.496677 -2.136274 -55.871890 8.880633 -5.974699 -5.397873 -7.498742 -0.600923 -3.917810 2.805999 0.144040 0.109850 -0.059780 0.139470 5.109693 3.562745 -0.366481 -34.733116 -15.124056 0.007295 -141.775900 -7.106969 32.201825 3.124367 -1.445284 -0.176650 0.207530 0.019790 -0.032740 
8.012480 16.669570 -0.578420 -4.307886 -22.039402 -3.538283 -14.993214 14.806852 2.238766 9.125987 -0.392947 -14.965624 20.930560 0.072656 19.867418 -0.084481 3.879613 3.115937 0.119400 0.186850 -0.070930 18.086579 -11.220240 3.063822 -10.596500 0.988570 -9.643179 7.394502 -4.102788 7.388339 -0.073374 -3.232907 3.339190 0.173060 0.269650 -0.084030 -3.098252 -2.880187 -7.438824 11.911164 5.053758 15.451928 -8.835676 5.768351 -16.726841 9.077137 -13.253814 -8.739720 -35.844474 30.494471 31.944194 9.024810 20.404610 7.357020 -21.027291 11.994738 -1.631707 -59.373435 10.485962 -7.026800 -7.048105 -8.267006 -0.650507 -3.932759 2.761039 0.167370 0.098480 -0.060680 0.132690 3.637086 2.963574 -0.312714 -34.259405 -14.283730 -0.036364 -141.659897 -6.776265 31.287767 3.108571 -1.422613 -0.194460 0.225340 0.042780 -0.036770 
8.029110 16.655500 -0.561410 -4.983531 -22.134032 -3.523284 -15.053257 14.919188 2.176547 10.136098 -0.082107 -14.862247 21.176408 0.153768 20.414313 -0.055821 4.034627 3.063162 0.094000 0.145390 -0.089360 18.037996 -11.120996 3.045312 -10.529039 1.008955 -9.007990 7.830641 -4.208048 7.449446 -0.072862 -3.297217 3.322455 0.149500 0.282530 -0.082620 -2.936362 -3.188888 -7.420484 12.220449 5.229877 15.501776 -6.421112 6.029932 -15.880963 8.913534 -13.446280 -9.167875 -37.157862 30.504361 30.928603 8.524170 20.338060 7.964010 -19.251068 12.568750 -0.973089 -61.885624 11.753257 -8.298510 -9.003929 -10.330261 -0.680040 -3.938551 2.759111 0.164840 0.102740 -0.077050 0.129700 2.599004 3.104956 -0.124547 -34.322547 -13.186122 -0.042693 -140.089026 -5.826729 27.548283 3.085545 -1.444842 -0.201730 0.219540 0.058660 -0.035880 
8.041900 16.634280 -0.544910 -5.616664 -21.873851 -3.830303 -15.099529 15.001470 2.105882 11.372964 0.253077 -14.326882 21.294959 0.281246 20.369575 -0.041073 4.145668 3.034020 0.069080 0.111450 -0.101290 18.003483 -11.049851 3.029957 -10.537582 0.926242 -8.000851 8.241433 -4.355663 7.465423 -0.082201 -3.402787 3.300283 0.134240 0.297810 -0.091040 -2.825133 -3.412136 -7.409546 12.403538 5.524678 15.194939 -4.539598 6.255199 -14.166608 8.886040 -13.156728 -9.784432 -36.916776 30.179577 31.402330 8.392370 19.968980 8.507530 -17.996862 11.328340 -0.105683 -61.880142 11.183826 -7.773136 -13.200709 -10.083007 -0.439539 -3.936098 2.785028 0.162340 0.113200 -0.093500 0.124490 1.743932 4.347781 0.480220 -33.807169 -12.018885 -0.547070 -138.316473 -4.996035 23.402835 3.025912 -1.521113 -0.216650 0.228260 0.070700 -0.039430 
8.068680 16.614270 -0.546600 -5.865212 -22.774073 -4.542810 -15.140427 15.115745 2.017953 12.781303 0.744426 -13.471813 20.240847 0.757258 21.297336 -0.024546 4.311451 2.982238 0.036290 0.067110 -0.104150 17.957272 -11.025503 2.999252 -11.228908 0.919719 -7.549870 8.543512 -4.537726 7.914008 -0.069234 -3.513303 3.267159 0.113630 0.309480 -0.083630 -2.672443 -3.586834 -7.402746 11.978691 6.165141 14.973440 -3.228070 6.708416 -11.951196 9.238149 -12.438966 -10.260339 -34.400788 29.074895 33.388500 7.571130 19.649970 9.407730 -18.283015 8.524747 0.455834 -58.479504 8.801411 -5.457054 -18.661660 -7.418779 -0.203621 -3.940000 2.874261 0.139890 0.145930 -0.116020 0.109620 1.555657 6.697516 1.399689 -32.583357 -9.895410 -1.568673 -136.615612 -3.530412 17.537044 2.925071 -1.661820 -0.224270 0.212580 0.081370 -0.049090 
8.097490 16.587240 -0.566370 -5.644513 -22.095986 -5.787429 -15.252138 15.186777 1.932343 14.207440 1.120133 -13.416425 18.966453 1.278304 22.653515 0.015017 4.472407 2.917045 0.031210 0.053580 -0.101940 17.859914 -10.909379 2.953986 -13.045368 0.814767 -6.088105 9.319307 -4.816016 7.672751 -0.097826 -3.762986 3.182400 0.095200 0.296670 -0.066200 -2.389691 -3.889532 -7.398465 10.164183 6.575889 15.086948 -0.471006 6.460853 -8.014643 9.036593 -11.963023 -11.079765 -32.895406 27.395747 33.982953 6.433130 18.715000 9.252200 -16.492932 5.205635 1.817605 -56.759614 6.181523 -4.542857 -28.384991 -8.131341 0.200858 -3.880165 3.048048 0.116540 0.154240 -0.121260 0.107090 0.634112 9.685818 2.669703 -31.331215 -8.319043 -3.102047 -134.414997 -5.009192 17.771813 2.851862 -1.820506 -0.201450 0.178310 0.073510 -0.044870 
8.138390 16.551400 -0.584080 -5.543355 -20.724285 -7.085802 -15.313399 15.182019 1.865664 15.045012 1.397825 -13.173626 18.136413 1.640755 23.788239 0.041745 4.624834 2.867497 0.017300 0.018480 -0.075860 17.808039 -10.897008 2.938087 -14.108509 0.645672 -4.615570 9.532553 -5.020470 7.498961 -0.122196 -3.976299 3.113240 0.070860 0.273750 -0.051020 -2.262062 -3.890574 -7.393206 9.010436 6.877312 15.171154 0.823482 6.106339 -4.033389 8.982969 -11.300226 -11.625439 -29.513123 24.605133 35.419477 4.230210 17.846100 8.526380 -15.989160 1.625960 2.759183 -52.170782 4.036276 -4.022010 -37.755826 -9.784093 0.838820 -3.834058 3.187436 0.101310 0.167100 -0.126810 0.090540 0.258770 12.713749 3.885641 -29.624985 -5.647885 -5.078442 -131.934973 -8.549742 22.038260 2.805631 -1.955345 -0.192520 0.146870 0.065960 -0.060050 
8.178330 16.516940 -0.607380 -5.453849 -19.706721 -8.458850 -15.394316 15.211628 1.805273 15.951179 1.804103 -12.823850 16.874857 2.221404 25.237394 0.062380 4.848053 2.796271 0.009570 -0.011250 -0.048960 17.741670 -10.894593 2.859113 -14.877111 0.571146 -3.552655 9.460255 -5.272965 8.359978 -0.128466 -4.148043 3.052020 0.058800 0.261000 -0.035700 -2.074362 -3.946124 -7.335472 7.661020 7.233492 15.629911 2.883804 5.453149 0.440793 8.760982 -11.045970 -12.382233 -27.641182 22.089045 35.161474 1.698230 16.848550 7.256160 -13.811911 -2.248968 4.040219 -49.034642 1.188688 -3.528795 -46.220137 -10.685490 1.256878 -3.814771 3.288590 0.084630 0.182210 -0.138320 0.075840 -1.350771 16.555260 5.060672 -29.219754 -0.173015 -8.007723 -127.590739 -14.085130 27.648140 2.777779 -2.064517 -0.189540 0.130840 0.063970 -0.073630 
8.227520 16.494840 -0.629870 -5.490318 -18.897732 -9.655662 -15.451590 15.221207 1.761785 16.829408 2.108290 -12.241411 15.414734 2.839888 26.321771 0.058339 5.055037 2.729739 0.021930 -0.007370 -0.012790 17.700584 -10.905000 2.768027 -15.507188 0.471251 -2.710514 9.019866 -5.442770 9.181993 -0.135941 -4.283818 3.001256 0.074530 0.256920 -0.014710 -1.956008 -3.973954 -7.258814 6.848097 7.234603 15.898112 4.571870 4.450999 4.361296 8.435714 -10.760432 -12.695477 -25.968835 20.693873 34.926020 -0.516500 16.672000 5.850880 -11.409643 -5.552715 5.052695 -45.558266 -1.972871 -2.677588 -54.596755 -10.169416 1.134936 -3.822724 3.365873 0.068030 0.210730 -0.144910 0.067490 -3.162579 19.531978 5.436378 -29.911500 5.647119 -10.894075 -122.594062 -17.725302 28.713159 2.743833 -2.128045 -0.190080 0.126320 0.057830 -0.089590 
8.285620 16.471240 -0.634770 -5.580664 -18.120037 -10.570873 -15.461795 15.185864 1.733652 17.432004 2.168056 -11.665959 14.409020 3.243218 27.361551 0.050279 5.246919 2.670649 0.047420 0.017290 0.015390 17.698186 -10.975887 2.681057 -16.210337 0.356361 -2.386552 8.742310 -5.680317 10.394482 -0.137559 -4.419539 2.946221 0.108330 0.261960 -0.001870 -1.962183 -3.850797 -7.168367 6.639217 7.073400 15.696324 5.537152 3.733362 7.443499 8.015276 -10.423815 -12.769320 -24.400579 19.518334 34.751358 -1.662140 16.010380 4.789570 -8.860807 -8.630142 5.757648 -42.035035 -6.069796 -1.219942 -61.543273 -8.930078 0.689389 -3.835926 3.427171 0.045740 0.237510 -0.157880 0.070380 -5.010488 22.037240 5.450528 -31.270839 9.639196 -13.583694 -116.739916 -21.221536 28.933858 2.738936 -2.172138 -0.192660 0.130070 0.046390 -0.097440 
